<svg width="36" height="36" xmlns="http://www.w3.org/2000/svg"><defs><filter x="-20%" y="-19.5%" width="140%" height="139%" filterUnits="objectBoundingBox" id="a"><feGaussianBlur stdDeviation="1.8" in="SourceGraphic"/></filter></defs><g fill="none" fill-rule="evenodd"><path d="M13.5 1.538c7.457 0 13.5 6.199 13.5 13.847S20.954 29.23 13.5 29.23 0 23.03 0 15.385C0 7.74 6.043 1.538 13.5 1.538z" fill="#77D9A3" opacity=".2" filter="url(#a)" transform="translate(4.5 3)"/><g fill-rule="nonzero"><path d="M18 3c7.457 0 13.5 6.198 13.5 13.846S25.454 30.692 18 30.692s-13.5-6.2-13.5-13.846C4.5 9.201 10.543 3 18 3z" fill="#52CC89"/><path fill="#FFF" d="M16.022 19.58l7.728-7.926 1.364 1.399-7.728 7.926-1.363 1.4-4.773-4.896 1.364-1.399z"/></g></g></svg>