<?xml version="1.0" encoding="UTF-8"?>
<svg width="81px" height="80px" viewBox="0 0 81 80" version="1.1" xmlns="http://www.w3.org/2000/svg" xmlns:xlink="http://www.w3.org/1999/xlink">
    <defs>
        <filter x="-7.4%" y="-7.5%" width="114.8%" height="115.0%" filterUnits="objectBoundingBox" id="filter-1">
            <feGaussianBlur stdDeviation="1.8" in="SourceGraphic"></feGaussianBlur>
        </filter>
    </defs>
    <g id="订单重构" stroke="none" stroke-width="1" fill="none" fill-rule="evenodd">
        <g id="弹窗规范" transform="translate(-1180.000000, -142.000000)">
            <g id="设置负责人-copy-2" transform="translate(1045.000000, 74.000000)">
                <g id="分组" transform="translate(135.000000, 68.000000)">
                    <g id="分组-22">
                        <g id="状态_警示">
                            <g id="分组" transform="translate(4.050000, 0.000000)">
                                <path d="M36.45,4 C56.5582771,4 72.9,20.1399732 72.9,40 C72.9,59.8600268 56.5582771,76 36.45,76 C16.3417229,76 0,59.8600268 0,40 C0,20.1399732 16.3417229,4 36.45,4 Z" id="路径" fill="#F06D6D" fill-rule="nonzero" opacity="0.200000003" filter="url(#filter-1)"></path>
                                <g id="exclamation-circle-o" fill-rule="nonzero">
                                    <path d="M36.45,2.84217094e-14 C56.5582771,2.84217094e-14 72.9,16.1399732 72.9,36 C72.9,55.8600268 56.5582771,72 36.45,72 C16.3417229,72 2.84217094e-14,55.8600268 2.84217094e-14,36 C2.84217094e-14,16.1399732 16.3417229,2.84217094e-14 36.45,2.84217094e-14 Z" id="形状" fill="#F66C6C"></path>
                                    <path d="M39.0535714,50.5714018 L39.0535714,55.7142589 L33.8464286,55.7142589 L33.8464286,50.5714018 L39.0535714,50.5714018 Z M39.0535714,16.2857411 L39.0535714,45.4285446 L33.8464286,45.4285446 L33.8464286,16.2857411 L39.0535714,16.2857411 Z" id="合并形状" fill="#FFFFFF"></path>
                                </g>
                            </g>
                        </g>
                    </g>
                </g>
            </g>
        </g>
    </g>
</svg>